<svg xmlns="http://www.w3.org/2000/svg" viewBox="0 0 100 100">
  <circle cx="50" cy="44" r="41" fill="#F7D2D9"/>
  <path d="M41,95
           C40,80 40.5,64 41,57
           C41.2,53 42.5,50.5 44,50.5
           C45,50.5 45.5,52 46.5,57
           C47.2,53 48,50 50,49.3
           C52,50 52.8,53 53.5,57
           C54.5,52 55,50.5 56.5,50.5
           C58,50.5 58.8,53 59,57
           C59.5,64 60,80 59,95 Z" fill="#AE876F"/>
  <g fill="#E894A6">
    <path d="M49,42 C45,40 45,33.5 49,32.5 C53,33.5 53,40 49,42 Z"/>
    <circle cx="43.6" cy="30.6" r="1.5"/><circle cx="45.7" cy="28.4" r="1.6"/><circle cx="48.2" cy="27.2" r="1.7"/><circle cx="50.8" cy="27.2" r="1.7"/><circle cx="53.2" cy="28.5" r="1.6"/>
  </g>
  <g fill="#EC9DAE">
    <path d="M32.5,43.5 C28.5,45 28,50.5 31.3,54 L32.5,50.8 L33.7,54 C37,50.5 36.5,45 32.5,43.5 Z"/>
    <path d="M70,43.5 C66,45 65.5,50.5 68.8,54 L70,50.8 L71.2,54 C74.5,50.5 74,45 70,43.5 Z"/>
  </g>
</svg>
